<svg xmlns="http://www.w3.org/2000/svg" viewBox="0 0 385.65 306.8"><defs><style>.cls-1{fill:#fff;}</style></defs><g id="Слой_2" data-name="Слой 2"><g id="Слой_1-2" data-name="Слой 1"><path class="cls-1" d="M141.86,153.86c-.22-1.66-1.57-2.61-2.52-3.76C112.07,117.5,77.68,96.67,36.06,87.92A158.11,158.11,0,0,0,2.73,84.44C.61,84.45,0,83.82,0,81.69q.11-39.51,0-79C0,.51.64,0,2.74,0c51,.75,97.93,14.73,140.85,42.25a269.53,269.53,0,0,1,43,34.6c1.82,1.79,3.48,3.73,5.21,5.6l.5.61,0,0c3,2.55,5.27,5.81,7.88,8.73a243.68,243.68,0,0,1,21.3,28.14c5.5,8.34,10.17,17.22,16.12,25.26,2,2.66,3.24,5.86,6.13,7.79.18,1.58,1.46,2.47,2.36,3.55q40.92,49.09,103.45,62.39A157.61,157.61,0,0,0,383,222.36c2.17,0,2.7.67,2.7,2.76q-.11,39.52,0,79c0,2.21-.71,2.67-2.77,2.64q-78.25-1.17-143.65-44.1a256.08,256.08,0,0,1-45.62-38.32,6.23,6.23,0,0,0-.8-.64,165.62,165.62,0,0,1-11.6-13,244.11,244.11,0,0,1-17.76-24.42c-5.18-8.23-9.81-16.8-15.47-24.72C146.07,159,144.75,155.78,141.86,153.86Z"/><path class="cls-1" d="M232.85,48.67A223.19,223.19,0,0,1,257.93,32.9c7.39-4.09,14.9-7.86,22.62-11.22A261,261,0,0,1,345.31,3.06,282.48,282.48,0,0,1,382.85,0c2,0,2.81.35,2.8,2.61q-.12,39.64,0,79.3c0,1.84-.43,2.51-2.41,2.52a176.94,176.94,0,0,0-74.78,17.18c-1.87.88-4,1.15-5.64,2.58-2.82.47-5.43-1.17-8.29-.8-1,.13-1.16-1-.72-1.69.85-1.41.12-2.18-.87-3A8.27,8.27,0,0,1,291.44,97c-6.12-9-11.68-18.53-20.52-25.37a5.42,5.42,0,0,1-1.22-1.31C266.9,65.83,262,63.9,258,61.05a99.21,99.21,0,0,0-13.8-8.65c-3.34-1.64-6.19-3.95-10.2-2.88C233.39,49.67,233.08,49.15,232.85,48.67Z"/><path class="cls-1" d="M83.93,201.9l.64-.23c3.53.19-.2,1.86.72,2.78.76.39,2.42-.86,2.82,1.22,1.06,5.44,4.51,9.82,7.75,13.88s6,8.78,9.33,13c3.45,4.4,7.9,7.38,11.77,11.11,3.2,3.09,7.24,5.28,10.67,8.16,4,3.38,9,4.94,13.46,7.59,1.25.75,2.85.87,2,3-.38,1,.74,1.15,1.37,1.52-6.09,3.9-12.37,7.45-18.69,11a238.65,238.65,0,0,1-31.52,14.61,257.25,257.25,0,0,1-67.58,15.91c-8.09.78-16.19,1.14-24.31,1.37-1.77,0-2.35-.46-2.35-2.28q.08-39.9,0-79.81c0-1.81.59-2.32,2.35-2.33,25.74-.14,50.22-5.94,73.66-16.47,2.31-1,4.31-2.68,6.81-3.29A1.42,1.42,0,0,0,83.93,201.9Z"/><path class="cls-1" d="M144.46,263.91c-.63-.37-1.75-.55-1.37-1.52.85-2.15-.75-2.27-2-3-4.42-2.65-9.42-4.21-13.46-7.59-3.43-2.88-7.47-5.07-10.67-8.16-3.87-3.73-8.32-6.71-11.77-11.11-3.3-4.18-6-8.79-9.33-13s-6.69-8.44-7.75-13.88c-.4-2.08-2.06-.83-2.82-1.22-.92-.92,2.81-2.59-.72-2.78l9.24-5.46a172.37,172.37,0,0,0,21.73-15.54,174.45,174.45,0,0,0,25.08-25.53,16.62,16.62,0,0,1,1.24-1.28c2.89,1.92,4.21,5.11,6.12,7.79,5.66,7.92,10.29,16.49,15.47,24.72a244.11,244.11,0,0,0,17.76,24.42,165.62,165.62,0,0,0,11.6,13,255,255,0,0,1-32,28.66C155.46,256.36,150.31,260.64,144.46,263.91Z"/><path class="cls-1" d="M232.85,48.67c.23.48.54,1,1.13.85,4-1.07,6.86,1.24,10.2,2.88A99.21,99.21,0,0,1,258,61.05c4,2.85,8.92,4.78,11.72,9.22a5.42,5.42,0,0,0,1.22,1.31c8.84,6.84,14.4,16.32,20.52,25.37a8.27,8.27,0,0,0,1.49,1.74c1,.83,1.72,1.6.87,3-.44.72-.3,1.82.72,1.69,2.86-.37,5.47,1.27,8.29.8-4.33,2.47-8.8,4.74-13,7.46-17.11,11.14-32.41,24.34-45.13,40.4a10.92,10.92,0,0,1-.9.9c-2.89-1.93-4.17-5.13-6.13-7.79-5.95-8-10.62-16.92-16.12-25.26a243.68,243.68,0,0,0-21.3-28.14c-2.61-2.92-4.85-6.18-7.88-8.73,1.84-.4,2.63-2.08,3.77-3.25a242.43,242.43,0,0,1,19.71-18.21A180.44,180.44,0,0,1,232.85,48.67Z"/><path class="cls-1" d="M83.93,201.9a1.42,1.42,0,0,1-1.1.71Z"/><path class="cls-1" d="M192.35,83.06l-.5-.61Z"/></g></g></svg>