<svg xmlns="http://www.w3.org/2000/svg" viewBox="0 0 540.76 168.68"><defs><style>.cls-1{fill:#fff;}</style></defs><g id="Слой_2" data-name="Слой 2"><g id="Слой_1-2" data-name="Слой 1"><path class="cls-1" d="M374.66,0c0,.43,0,.86,0,1.29V165.8c0,1.37,0,1.37-1.37,1.37H344.08c-.81,0-.82,0-.82-.83,0-1.72,0-3.45,0-5.37a69.9,69.9,0,0,1-12.62,5.16,64.93,64.93,0,0,1-13.26,2.36,3.29,3.29,0,0,0-1.78.19h-5.84a23.48,23.48,0,0,0-3.75-.38,60.72,60.72,0,0,1-19.78-5.44c-17.37-8.26-28.94-21.58-34.5-40a60.88,60.88,0,0,1-2.39-20.28,63.29,63.29,0,0,1,40.07-55.95,62.62,62.62,0,0,1,16.51-4,63.42,63.42,0,0,1,36.58,7l.49.22h.18a2.27,2.27,0,0,0,.08-1.1q0-23.62,0-47.24c0-.46,0-.93,0-1.4ZM348.43,105.13a35.95,35.95,0,1,0-36.06,35.7A35.92,35.92,0,0,0,348.43,105.13Z"/><path class="cls-1" d="M125.46,0c0,.47,0,.94,0,1.4V165.73c0,1.44,0,1.44-1.4,1.44H95.32c-1.37,0-1.2.16-1.21-1.2,0-1.55,0-3.1,0-4.65,0-.06,0-.12-.13-.29a63.69,63.69,0,0,1-25.78,7.47,2.54,2.54,0,0,0-1.56.18H59.49c-.09-.29-.35-.19-.54-.2a59.44,59.44,0,0,1-11.17-1.83A63,63,0,0,1,9.47,138.38,61,61,0,0,1,.39,111,5.18,5.18,0,0,0,0,109v-5.41a5,5,0,0,1,.13-1.27,3.92,3.92,0,0,0,.14-1.67c0-.29.11-.57.13-.85A60.56,60.56,0,0,1,4,83.63,63.7,63.7,0,0,1,93.07,49.35c.31.16.57.44,1,.37a3.92,3.92,0,0,0,.06-1.18V24.65q0-12.33,0-24.65ZM63.37,69.34A35.74,35.74,0,1,0,99.28,105,35.87,35.87,0,0,0,63.37,69.34Z"/><path class="cls-1" d="M288.78,0a2.45,2.45,0,0,1-.64,1.1q-47.43,68.1-94.87,136.18Q183.15,151.82,173,166.37a1.59,1.59,0,0,1-1.49.79q-17.29,0-34.61,0H136a4.05,4.05,0,0,1,.74-1.29L241.1,16.26Q246.41,8.64,251.72,1c.21-.3.61-.54.5-1Z"/><path class="cls-1" d="M538,0c0,.45-.31.71-.53,1Q498.88,56,460.3,111q-19.35,27.6-38.7,55.21a2.12,2.12,0,0,1-2,1q-16.54,0-33.09,0h-1.22c-.12-.48.25-.74.46-1q7.93-11.4,15.88-22.78L501.12.82c.19-.27.34-.55.51-.82Z"/><path class="cls-1" d="M172.62,0c-.08.47.32.69.53,1Q185,17.4,196.77,33.78q5.85,8.1,11.69,16.22c.69,1,.63.7,0,1.55q-9.5,13.39-19,26.78c-.16.23-.34.46-.53.7-.43-.15-.56-.55-.77-.86q-20.24-29.36-40.44-58.72Q141.39,10.24,135.06,1c-.22-.31-.57-.57-.51-1Z"/><path class="cls-1" d="M424.63,0a2.47,2.47,0,0,0,.54.91l33.11,47.5c.72,1,.72.75.05,1.76L441.62,75.24a2.38,2.38,0,0,1-.7.86l-.56-.78Q414.5,38.17,388.65,1a2.36,2.36,0,0,1-.58-1Z"/><path class="cls-1" d="M0,100.56l.27.08a4,4,0,0,1-.14,1.68A5,5,0,0,0,0,103.59Z"/><path class="cls-1" d="M315.6,168.68a3.29,3.29,0,0,1,1.78-.19l.17.19Z"/><path class="cls-1" d="M66.63,168.68a2.54,2.54,0,0,1,1.56-.18l.17.18Z"/><path class="cls-1" d="M540.76,167.15h-1.18q-16.65,0-33.31,0a1.88,1.88,0,0,1-1.76-.92q-10.41-15-20.88-30l-13.52-19.43c-.82-1.18-1.63-2.37-2.48-3.53a1,1,0,0,1,0-1.33Q476,99.8,484.38,87.57c.18-.26.38-.51.57-.77C485.76,87.49,540.4,166.11,540.76,167.15Z"/></g></g></svg>