<svg xmlns="http://www.w3.org/2000/svg" viewBox="0 0 432.13 322.46"><defs><style>.cls-1{fill:#fff;}</style></defs><g id="Слой_2" data-name="Слой 2"><g id="Слой_1-2" data-name="Слой 1"><path class="cls-1" d="M432.13,161.64c-1.25,46.44-10.05,90.89-39.91,128.05-8.77,10.92-21.38,19.77-33.89,26.44-20.49,10.91-41.68,7.32-58.57-7.7-12.39-11-22.29-25.15-32-38.82-11.51-16.2-20.29-34.46-32.67-49.9-19.24-24-49.54-31.83-75.68-19.29-12,5.75-22.54,15.86-31.72,25.86-11.37,12.39-19.64,27.63-31,40-22.82,24.8-51.93,22.12-71.1-5.39a66.69,66.69,0,0,1-6.25-10.4c-21.38-47.11-25.41-95.65-10-145.11A77.53,77.53,0,0,1,25.92,76.89C43.46,57.82,73,58.53,93.08,78.1c11.1,10.83,20.44,23.43,30.85,35,35.88,39.83,85.82,36.67,115.45-8,9.86-14.84,16.69-31.66,25.94-46.95,8.18-13.51,16.39-27.46,27.09-38.88,21.33-22.77,51.08-25,77.56-8.44,24.62,15.43,37.31,39.48,47.15,65.38C427.54,103.63,432.23,132.21,432.13,161.64Z"/></g></g></svg>