<svg xmlns="http://www.w3.org/2000/svg" viewBox="0 0 494.62 491.25"><defs><style>.cls-1{fill:#fff;}</style></defs><g id="Слой_2" data-name="Слой 2"><g id="Слой_1-2" data-name="Слой 1"><path class="cls-1" d="M82.43,219.31c4.44-.3,10,.22,15.47.76a296.71,296.71,0,0,1,48.73,9.1c23.08,6.26,45.7,13.8,67.39,24,40,18.82,75.19,44.28,104.81,77.23a316.57,316.57,0,0,1,39,53c6.72,11.61,11.2,24.15,14.59,37.18,1.73,6.63,3.79,13.18,5.11,19.91a44.92,44.92,0,0,1,.72,9.2c-.12,9.79-6.85,14.29-14.7,17.63-4.39,1.86-9,3.29-13.45,4.9-1.54.55-2.44.65-3.11-1.54a259,259,0,0,0-58.64-102.28c-25.1-26.93-54.48-48.19-86.86-65.47-23.3-12.43-47.54-22.51-73.22-28.84-27.47-6.78-55.28-9.56-83.57-7.05a273.26,273.26,0,0,0-36.47,5.67c-1.34.3-2.4.58-3.1-1.1C3,266.51.9,261.4.22,255.87c-1.16-9.5,2.15-15.7,11-20.68,11.41-6.42,23.84-10,36.54-12.64A165.73,165.73,0,0,1,82.43,219.31Z"/><path class="cls-1" d="M50.52,141.35c8.49-3.73,17.47-5.63,26.55-7a125.69,125.69,0,0,1,25-1.36c9.91.54,19.77,1.49,29.65,2.9A442.29,442.29,0,0,1,217,157.24a392.92,392.92,0,0,1,113.53,62.21,355.47,355.47,0,0,1,45.62,42.39c11.36,12.76,22.11,26,32.38,39.74a156.51,156.51,0,0,1,25,50.89c2.83,9.81,6.29,19.5,7.77,29.65,2.4,16.45-2.66,30.4-14.59,41.89-3,2.86-2.52-.9-2.75-1.76a288.5,288.5,0,0,0-13.13-38.49,286.35,286.35,0,0,0-32-57,314.9,314.9,0,0,0-33.29-38.47c-20.88-20.71-44.2-38.21-69.07-53.78a501.91,501.91,0,0,0-50.42-27.89,373.62,373.62,0,0,0-65.93-24.57,310.18,310.18,0,0,0-58.54-9.55c-.61-1.75-2.12-1.11-3.27-1.12-7.76-.07-15.52.11-23.27-.13-4.19-.12-8-2.84-12.42-2.12-.31.06-.78-.34-1.05-.65-1.79-2.05-4.13-2.48-6.67-2.24A3.9,3.9,0,0,1,50.32,163c-.61-2.44-2.11-3.48-4.67-3.14-1.72.22-3.79.15-4.35-1.8-1.13-3.93-3.93-4.15-7.21-4-2.07.13-3.91-.29-3.85-3a.44.44,0,0,1,.51-.22c1.16,0,2.35.28,3.35-.58C39,149,42.46,145,47.24,143.53,48.45,143.16,49.93,142.82,50.52,141.35Z"/><path class="cls-1" d="M268.89,491c-4.51,1.2-8.12-1.84-11.12-6.09-7.21-10.23-14.36-20.49-22.36-30.15a265.73,265.73,0,0,0-51.18-47.68,263.8,263.8,0,0,0-52.5-28.72c-20-8.2-40.65-13.72-61.79-17.65A142,142,0,0,0,42,358.06c-7,.1-12-2.66-15.64-8.84-4.74-8.11-7.94-16.86-11.46-25.48-.56-1.38-1.09-2.77-1.69-4.13-1.59-3.61-1.62-4.08,2.09-4.71,3.91-.67,7.33-2.58,11.13-3.51a169.55,169.55,0,0,1,57.63-3.58,248.41,248.41,0,0,1,77,20.85c50.39,22.56,93.18,54.59,123.49,101.6A154.47,154.47,0,0,1,307,484.41c.25,1.27,1.38,3-1.3,3.27C293.78,488.64,282,490.45,268.89,491Z"/><path class="cls-1" d="M69.2,76.13a75.77,75.77,0,0,1,24.85-14c13.26-4.65,27.05-6.21,41-7.07a231.86,231.86,0,0,1,37,.76c6.25.62,12.5,2,18.69,2.75a249.43,249.43,0,0,1,29.82,6.14,275.11,275.11,0,0,1,37.13,12.2c5.22,2.16,10.57,4,15.77,6.19,30.36,13.11,59.77,28,87,46.87,8.05,5.58,16.12,11.22,23.59,17.53,6.48,5.46,13.55,10.29,19.4,16.43,5.57,5.85,11.66,11.15,17.27,17,15.21,15.8,29.07,32.55,40.23,51.43,8.12,13.73,14.14,28.49,20,43.27,2.19,5.52,5,10.8,6.22,16.68,1.71,8.35.4,16.76.09,25.42-2.38-3.75-4.74-7.52-7.12-11.27a585.78,585.78,0,0,0-44.25-60.82,532.87,532.87,0,0,0-38.44-41.33c-7.08-6.87-14.58-13.31-22.13-19.68a437,437,0,0,0-73.5-50.27A464.42,464.42,0,0,0,175.34,88.23q-26.82-5.66-54-8.69C104.31,77.66,87.22,76.51,69.2,76.13Z"/><path class="cls-1" d="M494.62,184.76Q373.79,45.32,193.09,8.52c3.67-1,7.33-2,11-2.87s7.45-1.68,11.2-2.37A214,214,0,0,1,260.73.11c2.62.07,5.18,0,7.79,1s5.78-.17,8.77.14a252.75,252.75,0,0,1,80.5,22.47,249.52,249.52,0,0,1,37.6,21.45c42.5,29.51,73.56,68.06,91.85,116.64,2,5.25,3.7,10.61,5.45,15.94C493.45,180.05,494,182.42,494.62,184.76Z"/><path class="cls-1" d="M52,392.31a71.83,71.83,0,0,1,18.61-.17c23.24,2.83,44.5,11.55,65,22.35a272.36,272.36,0,0,1,60.56,43c10.34,9.77,21.31,23.45,25.56,32.33-12.16,2.33-69.62-16.78-94.5-31.28C98,441.52,73.33,419.42,52,392.31Z"/><path class="cls-1" d="M30.24,151.06c-.06,2.72,1.78,3.14,3.85,3,3.28-.2,6.08,0,7.21,4,.56,1.95,2.63,2,4.35,1.8,2.56-.34,4.06.7,4.67,3.14A3.9,3.9,0,0,0,55,166.25c2.54-.24,4.88.19,6.67,2.24.27.31.74.71,1.05.65,4.41-.72,8.23,2,12.42,2.12,7.75.24,15.51.06,23.27.13,1.15,0,2.66-.63,3.27,1.12-6.68-.16-13.36-.51-20-.43a289.22,289.22,0,0,0-71,9.87c-2.29.6-3,.53-2.4-2.21C11.25,166.83,19,157.61,30.24,151.06Z"/><path class="cls-1" d="M50.52,141.35c-.59,1.47-2.07,1.81-3.28,2.18C42.46,145,39,149,34.1,150.26l0,0-.68-.68a2.52,2.52,0,0,0-.27-.3A85.89,85.89,0,0,1,50.52,141.35Z"/><path class="cls-1" d="M34.1,150.26c-1,.86-2.19.63-3.35.58l2.42-1.53a2.52,2.52,0,0,1,.27.3l.68.68Z"/><path class="cls-1" d="M34.12,150.29l-.68-.68Z"/></g></g></svg>