<svg xmlns="http://www.w3.org/2000/svg" viewBox="0 0 379.2 415.28"><defs><style>.cls-1{fill:#fff;}</style></defs><g id="Слой_2" data-name="Слой 2"><g id="Слой_1-2" data-name="Слой 1"><path class="cls-1" d="M246,415.28h-6a29.25,29.25,0,0,0-4.23-.82,35.62,35.62,0,0,1-18.24-9.95Q180.78,367.75,144,331l-72.1-72.1a4.74,4.74,0,0,0-1.68-1.35v2.11q0,42.11,0,84.2a41.82,41.82,0,0,1-.41,6.62,35.12,35.12,0,0,1-66.71,9A37.32,37.32,0,0,1,0,343.87q.06-61.2,0-122.39V71.69A46.75,46.75,0,0,1,.38,64.9c3.7-24.85,31.62-38,53-24.8C64.29,46.85,70,56.92,70.18,69.79c.2,13.18,0,26.35,0,39.53q0,23.25,0,46.49a2.77,2.77,0,0,0,.37,2c.49-.59.85-1.08,1.28-1.51q59.4-59.43,118.83-118.85,13.56-13.56,27.13-27.12a35.07,35.07,0,0,1,18-9.65A47.54,47.54,0,0,1,245.63,0c1.25.19,2.51.35,3.76.58a35.64,35.64,0,0,1,18.84,10.15q50.49,50.51,101,101a22.34,22.34,0,0,1,1.69,1.82c7.31,9.07,10,19.36,7.18,30.67-3.21,13-11.46,21.79-24.33,25.51s-24.65.79-34.31-8.67c-13.72-13.44-27.2-27.13-40.78-40.71Q261.38,103,244.06,85.67c-1.15-1.14-1.16-1.14-2.3,0l-.23.23L121.42,206c-1.56,1.57-1.56,1.57,0,3.11l119.89,119.9c1.55,1.55,1.55,1.55,3.09,0q37.33-37.35,74.69-74.68c.62-.63,1.24-1.26,1.91-1.85a34.76,34.76,0,0,1,40.54-3.82c12.55,7.58,18.39,18.94,17.35,33.6a31.91,31.91,0,0,1-9.37,20.76Q318.72,354,267.83,404.79a34.75,34.75,0,0,1-19.32,9.91A6.46,6.46,0,0,0,246,415.28Z"/><path class="cls-1" d="M242.81,242.78a35.16,35.16,0,1,1,.57-70.32c19,0,34.66,15.93,34.66,35.17A35.24,35.24,0,0,1,242.81,242.78Z"/></g></g></svg>