<svg xmlns="http://www.w3.org/2000/svg" viewBox="0 0 443.19 448.05"><defs><style>.cls-1{fill:#fff;}</style></defs><g id="Слой_2" data-name="Слой 2"><g id="Слой_1-2" data-name="Слой 1"><path class="cls-1" d="M262.37,167C179.73,250.62,93.83,330.63,1.19,403.15L0,402c6.83-8.67,13.59-17.4,20.52-26C53.1,335.59,87.27,296.54,122.38,258.3c36.57-39.81,74.32-78.48,112.27-117,1.09-1.1,2.36-2,3.55-3a4.9,4.9,0,0,1-2.12,5c-6.9,5.46-12.13,12.47-18.88,20,4.13-.75,5.73,1.43,7.51,3.56a4.49,4.49,0,0,0,5.61,1.38c2.6-1.18,4.3-1.16,3.09,2.42a2.76,2.76,0,0,0,.3,2.92c3.54,4.21,2.17,9.35,2.72,14.13-1.61.41-2.78,1.2-2.34,3.1,0,.23.92.56,1.19.42,1.47-.75,1.19-2.18,1.18-3.49,2.53.13,4.14-1.65,5.72-3.11,5-4.64,9.87-9.52,14.88-14.2C258.6,169,259.61,166.58,262.37,167Z"/><path class="cls-1" d="M281,233.21c-13.85,14.69-28.64,28.43-43.2,42.4-12,11.47-24.15,22.72-36.21,34.09Q135.14,372.3,64,429.49c-7.33,5.87-14,12.76-23,16.37-.81.33-1.12.7-1,1.44a1.12,1.12,0,0,0,.67.69c.76.22,1.15-.2,1.54-.88,11-19.41,26.41-35.46,40.41-52.54,28.54-34.8,58.54-68.35,89.17-101.34,25.71-27.69,51.65-55.16,78.41-81.83a3.72,3.72,0,0,1-.37,3.48c-1.1,2-1.62,4.8.68,5.42,7.23,1.95,10.59,7.63,14.78,13,4.66,5.94,6.08,5.64,12.22.87A4.29,4.29,0,0,1,281,233.21Z"/><path class="cls-1" d="M281,233.21a4.29,4.29,0,0,0-3.38.93c-6.14,4.77-7.56,5.07-12.22-.87-4.19-5.34-7.55-11-14.78-13-2.3-.62-1.78-3.42-.68-5.42a3.72,3.72,0,0,0,.37-3.48c16.07-16.24,32-32.57,48.21-48.68,12.54-12.48,25.31-24.72,38-37q32.72-31.6,66.34-62.23c2.6-2.38,3.81-1.74,5.72.65a189.45,189.45,0,0,1,13.1,19.32c1.68,2.74.47,4.42-1.34,6.36-10.12,10.87-20,22-30.28,32.68Q354.18,159.89,318,197c-6.73,6.92-13.83,13.48-20.44,20.5-2.11,2.24-6.1,2.11-6.81,5.82-3.48-.6-4.31,1.33-4.06,4.27l0-.05a2.63,2.63,0,0,0-2.57,2l-.31.07c-1.83.5-3.12,1.42-2.79,3.6Z"/><path class="cls-1" d="M294.78,253.28c14.07-15.68,28.84-30.69,43.74-45.56,18.26-18.23,36.5-36.48,55-54.5,12.64-12.33,25.67-24.24,38.44-36.44,2.07-2,3.61-3,4.6.61,3,11,6,22.1,6.65,33.62a7.32,7.32,0,0,1-2.1,6Q384.92,216.5,325.71,272.9a2.63,2.63,0,0,1-.94.35c-3-.6-4.84,1.24-6.4,3.29-2.93,3.86-6.18,6.12-11,3.07-.29-1.44.2-3.37-2-3.67a1.34,1.34,0,0,0-1.59,1.58c.29,2.21,2.23,1.72,3.66,2,.35,1.93,3.59,4.05.56,5.66-2.4,1.27-3.69-1.55-5.07-3.26-2.54-3.15-4.63-6.41-3.88-10.73,1-.61,2.1-1.17,1.51-2.65-.06-.14-.8-.17-.81-.14-.25.93-.45,1.88-.65,2.83a7.86,7.86,0,0,1-2.06,0c-2-.57-4.36,2.28-5.64.41-1.39-2,1.58-3.37,2.53-5.08.44-.78.88-1.7.13-2.34-1.08-.92-1.84.13-2.57.79s-1.75,2.2-3,1.06c-1.39-1.3.2-2.28.8-3.46C290.94,259.38,295.12,257.64,294.78,253.28Z"/><path class="cls-1" d="M262.37,167c-2.76-.4-3.77,2-5.31,3.45-5,4.68-9.83,9.56-14.88,14.2-1.58,1.46-3.19,3.24-5.72,3.11l0,0c-.55-4.78.82-9.92-2.72-14.13a2.76,2.76,0,0,1-.3-2.92c1.21-3.58-.49-3.6-3.09-2.42a4.49,4.49,0,0,1-5.61-1.38c-1.78-2.13-3.38-4.31-7.51-3.56,6.75-7.54,12-14.55,18.88-20a4.9,4.9,0,0,0,2.12-5c14.05-15.06,29.21-29,43.91-43.39C306,71.56,330.3,48.72,354.75,26c3.7-3.44,6.39-4.16,10.63-1.23,5.84,4,11.54,8.24,17.18,12.56,2.4,1.84,1.73,3,0,4.91C369,56.57,355.58,71,342.07,85.36c-17,18.1-34.16,36.12-51.65,53.78C281.16,148.5,272.49,158.48,262.37,167Z"/><path class="cls-1" d="M184.88,107l1.27-.72c1.21-.14,2-.67,2.09-2,6.5-8.49,14.58-15.48,22-23.12,26.05-27,53.27-52.84,80.42-78.72C292.14,1,293.56-.37,296,.09,307.08,2.16,318.16,4,328.88,7.68c4.11,1.42,2.89,2.79,1,4.76-16.64,17.25-33.1,34.67-49.79,51.87-17,17.55-34.34,34.83-51.71,52.05-8.76,8.68-17.92,17-26.91,25.42l-2.6.05c-.32-.37,0-1.55-1.14-.87l1.2.81a16.12,16.12,0,0,1-4.84,4.64c-2.7,1.6-6.07,2.89-8.2.86-1.84-1.74,2.41-3.21,2.53-5.49.32-.33,1.41,0,.84-1.06l-.78,1.11c-9.37.54-13-8-19.19-12.33-1.6-1.12,0-1.79.94-2.59A23.68,23.68,0,0,0,178,114.68h0c2.83.06,4.18-1.34,4.08-4.16l.11-.1a2.18,2.18,0,0,0,2.06-2.33c.21-.4.43-.79.64-1.18Z"/><path class="cls-1" d="M198.85,141.83l2.6-.05c-20.34,21-42.2,40.38-64,59.84C117.8,219.2,97.69,236.3,77.39,253.16c-15.32,12.73-31.31,24.65-46.8,37.17-2.07,1.67-5.14,1.19-6.28,3.33,3.25-7.26,9-13.43,14.12-19.92C54.94,252.82,71.59,232,88.84,211.68c14.93-17.56,30.73-34.38,46.19-51.5,14-15.49,28.15-30.82,43-45.5a23.68,23.68,0,0,1-7.81,12.23c-.94.8-2.54,1.47-.94,2.59,6.24,4.35,9.82,12.87,19.19,12.33l-.06-.05c-.12,2.28-4.37,3.75-2.53,5.49,2.13,2,5.5.74,8.2-.86a16.12,16.12,0,0,0,4.84-4.64ZM187.59,150a1.13,1.13,0,0,0-.91,1.47,1.43,1.43,0,0,0,.91.93,1.08,1.08,0,0,0,1.2-1.2A1.12,1.12,0,0,0,187.59,150Z"/><path class="cls-1" d="M299,271.23c-.75,4.32,1.34,7.58,3.88,10.73,1.38,1.71,2.67,4.53,5.07,3.26,3-1.61-.21-3.73-.56-5.66l-.05.05c4.81,3.05,8.06.79,11-3.07,1.56-2.05,3.39-3.89,6.4-3.29-18.65,18.54-38.17,36.12-57.71,53.71-18,16.15-36.09,32.1-54.77,47.41-17.46,14.31-35.26,28.19-52.92,42.25a17,17,0,0,1-8.3,4.17c3.63-4.8,6.63-8.79,9.65-12.75,29.23-38.29,60.37-75,92.75-110.61,13.56-14.92,27-29.94,41.31-44.15.34,4.36-3.84,6.1-5.46,9.34-.6,1.18-2.19,2.16-.8,3.46,1.21,1.14,2.1-.28,3-1.06s1.49-1.71,2.57-.79c.75.64.31,1.56-.13,2.34-.95,1.71-3.92,3-2.53,5.08,1.28,1.87,3.62-1,5.64-.41a7.86,7.86,0,0,0,2.06,0Z"/><path class="cls-1" d="M351.21,289.28c9.68-13.41,21-25.43,31.86-37.84,17.38-19.89,35.74-38.89,54.19-57.79,1.26-1.28,2.17-3.18,4.73-3.42,0,7.09-1.7,13.78-3.5,20.35a168.88,168.88,0,0,1-32.73,63.67c-3.89,4.7-8.5,8.55-13.08,12.45-12.49,10.6-25.12,21-37.71,31.52a11.51,11.51,0,0,1-1.79,1c-4.08,0-6.29,2.33-7.58,5.89l-.08.15a3.4,3.4,0,0,0-3.42.64c-3.54,3-6.51.94-9.31-1.2-1.48-1.14-3.18-2.86-1.91-4.84s2.64.21,3.92.7c.83.31,1.74.72,2.43.05s.15-1.73-.52-2.16c-6.6-4.18-1.28-6.46,1.18-9.73C342.61,302.46,347.94,296.56,351.21,289.28Z"/><path class="cls-1" d="M142.54,72.43c11.43-15.16,23.57-29.9,37.38-42.76,11.38-10.6,26.4-16.23,41.15-21.5,10.65-3.81,21.72-5.78,32.79-7.79a34.9,34.9,0,0,1,5.33,0C252.35,8.43,245,14.89,238,21.65q-26.1,25.18-53.44,49c-5.81,5.08-11.85,9.91-17.78,14.86a1.93,1.93,0,0,0-2.25,1.21l.2-.18c-2.78.71-5.4,1.59-5.47,5.17l.05,0c-3.92-.88-6.09,4.79-10.32,2.76-.19.46-.57.93-.53,1.36.4,4.39-3.79,4.93-6,7.12-.89.89-2.26,1.35-3.21.12s0-2.1,1.07-2.93c3.42-2.72,2.32-3.88-1.48-4-2.69-.06-2.35-1.33-1.26-3,.6-.92,2.19-1.33,1.54-3.07-1.52-.73-2.94.15-4.42.45-1.21.24-2.83,1.67-3.58-.23-.52-1.31,1.23-1.75,2.07-2.56A25.07,25.07,0,0,0,140.44,75l0,.07A2.49,2.49,0,0,0,142.54,72.43Z"/><path class="cls-1" d="M140.44,75a25.07,25.07,0,0,1-7.25,12.84c-.84.81-2.59,1.25-2.07,2.56.75,1.9,2.37.47,3.58.23,1.48-.3,2.9-1.18,4.42-.45.65,1.74-.94,2.15-1.54,3.07-1.09,1.66-1.43,2.93,1.26,3,3.8.07,4.9,1.23,1.48,4-1,.83-2.07,1.63-1.07,2.93s2.32.77,3.21-.12c2.17-2.19,6.36-2.73,6-7.12,0-.43.34-.9.53-1.36,4.23,2,6.4-3.64,10.32-2.76C151.05,99.59,142,106.47,133,113.43c-13.18,10.23-26.43,20.38-40.28,29.69-1.55,1-3.32,4-5.11,2.2-2.14-2.19,1.41-3.3,2.43-4.83,14.23-21.43,30.28-41.49,46.48-61.43C137.71,77.6,139.13,76.32,140.44,75ZM129.51,96.1a1.58,1.58,0,1,0-3.14-.36,1.42,1.42,0,0,0,1.36,1.74C128.72,97.62,129.27,97,129.51,96.1Z"/><path class="cls-1" d="M351.21,289.28c-3.27,7.28-8.6,13.18-13.32,19.45-2.46,3.27-7.78,5.55-1.18,9.73.67.43,1.36,1.34.52,2.16s-1.6.26-2.43-.05c-1.28-.49-2.61-2.75-3.92-.7s.43,3.7,1.91,4.84c2.8,2.14,5.77,4.18,9.31,1.2a3.4,3.4,0,0,1,3.42-.64,428.93,428.93,0,0,1-44.39,32.66l-1.32-1.57c4-5.86,7.67-11.94,12-17.56,12.42-16.27,25.07-32.36,37.66-48.49C349.82,289.81,350.61,289.62,351.21,289.28Z"/><path class="cls-1" d="M345.6,325.12c1.29-3.56,3.5-5.93,7.58-5.89C351.21,321.91,348.4,323.5,345.6,325.12Z"/><path class="cls-1" d="M159.22,91.75c.07-3.58,2.69-4.46,5.47-5.17C163.53,89,161.33,90.33,159.22,91.75Z"/><path class="cls-1" d="M182.1,110.52c.1,2.82-1.25,4.22-4.08,4.16A9.18,9.18,0,0,1,182.1,110.52Z"/><path class="cls-1" d="M286.68,227.56c-.25-2.94.58-4.87,4.06-4.27C289.87,225.18,288.26,226.36,286.68,227.56Z"/><path class="cls-1" d="M281,233.16c-.33-2.18,1-3.1,2.79-3.6A4.88,4.88,0,0,1,281,233.16Z"/><path class="cls-1" d="M142.54,72.43A2.49,2.49,0,0,1,140.4,75,3.43,3.43,0,0,1,142.54,72.43Z"/><path class="cls-1" d="M164.49,86.76a1.93,1.93,0,0,1,2.25-1.21C166.34,86.61,165.37,86.61,164.49,86.76Z"/><path class="cls-1" d="M188.24,104.26c-.05,1.34-.88,1.87-2.09,2C186.6,105.34,187.07,104.44,188.24,104.26Z"/><path class="cls-1" d="M184.27,108.09a2.18,2.18,0,0,1-2.06,2.33C182.9,109.64,183.58,108.86,184.27,108.09Z"/><path class="cls-1" d="M284.14,229.49a2.63,2.63,0,0,1,2.57-2C286.09,228.47,285.53,229.52,284.14,229.49Z"/><path class="cls-1" d="M184.88,107l0-.08Z"/><path class="cls-1" d="M236.46,187.74c0,1.31.29,2.74-1.18,3.49-.27.14-1.14-.19-1.19-.42-.44-1.9.73-2.69,2.34-3.1Z"/><path class="cls-1" d="M307.43,279.56c-1.43-.32-3.37.17-3.66-2a1.34,1.34,0,0,1,1.59-1.58c2.22.3,1.73,2.23,2,3.67Z"/><path class="cls-1" d="M299.09,271.27c.2-.95.4-1.9.65-2.83,0,0,.75,0,.81.14.59,1.48-.51,2-1.51,2.65Z"/><path class="cls-1" d="M198.91,141.77l-1.2-.81c1.13-.68.82.5,1.14.87Z"/><path class="cls-1" d="M188.46,141.83l.78-1.11c.57,1-.52.73-.84,1.06Z"/><path class="cls-1" d="M187.59,150a1.12,1.12,0,0,1,1.2,1.2,1.08,1.08,0,0,1-1.2,1.2,1.43,1.43,0,0,1-.91-.93A1.13,1.13,0,0,1,187.59,150Z"/><path class="cls-1" d="M129.51,96.1c-.24.92-.79,1.52-1.78,1.38a1.42,1.42,0,0,1-1.36-1.74,1.58,1.58,0,1,1,3.14.36Z"/></g></g></svg>