<svg xmlns="http://www.w3.org/2000/svg" viewBox="0 0 535.88 329.09"><defs><style>.cls-1{fill:#fff;}</style></defs><g id="Слой_2" data-name="Слой 2"><g id="Слой_1-2" data-name="Слой 1"><path class="cls-1" d="M522.65,303.81a62.94,62.94,0,0,1-40.21,24,47.28,47.28,0,0,1-7.88.68c-6.36,0-12.68.63-19,.61q-55.59-.12-111.18-.1-17.35,0-34.7-.1c-1.07,0-2.14-.06-3.21-.1-.48-.61-1.16-.44-1.78-.45H285c-.62,0-1.3-.17-1.79.42a33.06,33.06,0,0,1-5.54,0c-.42,0-.85.12-1.27.12-16.64,0-33.28,0-49.92-.13q-14.36-.13-28.7-.13h-132c-11.33,0-22.17-2.22-32.13-7.74C16.55,311.35,6,296.82,1.7,277.73A45.74,45.74,0,0,1,.77,272,5.93,5.93,0,0,0,0,269.19v-9.43c1-1.52.78-3.29,1-4.95,1.41-9.09,5-17.33,9.55-25.25q29.85-51.37,59.5-102.86Q96.28,81.37,122.43,36a83.4,83.4,0,0,1,11.46-16.22C144.41,8.73,157.19,1.86,172.44.44c25.14-2.34,45.37,6.83,60.48,27.06,2.6,3.48,4.47,7.47,6.64,11.24q13.59,23.55,27.17,47.11c.35.61.43,1.6,1.49,1.58.65-1.19,1.27-2.39,1.95-3.56,10.08-17.34,20.08-34.72,30.28-52C311,14.13,326.49,3.52,346.91.65a64.38,64.38,0,0,1,65,31.47q36,62.19,71.76,124.47,21.33,37,42.68,74a67.1,67.1,0,0,1,8.93,25.48C537.46,273.65,533.63,289.72,522.65,303.81Z"/><path class="cls-1" d="M306.43,328.79a22.35,22.35,0,0,1-4.25.12q-8.3,0-16.6,0c-.78,0-1.56-.09-2.33-.13.49-.59,1.17-.42,1.79-.42h19.61C305.27,328.35,306,328.18,306.43,328.79Z"/></g></g></svg>