<svg xmlns="http://www.w3.org/2000/svg" viewBox="0 0 428.26 428.28"><defs><style>.cls-1{fill:#fff;}</style></defs><g id="Слой_2" data-name="Слой 2"><g id="Слой_1-2" data-name="Слой 1"><path class="cls-1" d="M0,227v-25.7c.58-.37.43-1,.46-1.5A206.45,206.45,0,0,1,3.77,174,214.15,214.15,0,0,1,205.65.19,208.27,208.27,0,0,1,255.29,4,214.22,214.22,0,0,1,428.07,205.28a210.57,210.57,0,0,1-3.58,48.7c-7.86,41.17-26.28,77-54.95,107.43a213.69,213.69,0,0,1-136.13,66c-2.15.19-4.4-.12-6.47.84H200.78c-.36-.61-1-.45-1.49-.48A213.89,213.89,0,0,1,67,369.72,213.71,213.71,0,0,1,.84,233.5C.65,231.35,1,229.09,0,227Zm94.19,27.9c-5.28-4.27-10.71-6-16.88-5.12-4.89.69-9.46,2.55-14.11,4.08-6.2,2.05-12.48,3.61-19.1,2.87-1.15-.13-2.3-.31-3,.79s0,2.09.59,3.06a101,101,0,0,0,20.68,25.28c9.36,8.07,19.91,13.49,32.55,13.82a4.77,4.77,0,0,1,4,2c12.86,15.35,27.45,28.77,44.6,39.23,33.16,20.25,68.63,26.59,106.47,16.73,61.36-16,110.41-74.53,109.13-140.89,0-1.48.52-1.92,1.85-2.08a19.06,19.06,0,0,1,10.8,2.13,44.78,44.78,0,0,1,11.15,8,2.69,2.69,0,0,0,3.22.8c1.21-.56,1.3-1.68,1.21-2.84a66.33,66.33,0,0,0-1.22-9.42c-5.75-25.77-20.41-45.06-42.78-58.72a6.46,6.46,0,0,1-2.51-2.41,163.84,163.84,0,0,0-11.24-17.32c-12.31-17-26.17-32.44-43.64-44.32-20.24-13.77-42.51-19.9-67-17.85-13.66,1.14-26.82,4.49-39.87,8.42-10.37,3.12-20.59,6.82-31.29,8.74-11.79,2.12-17.27,9-16.62,20.89.5,9.12,3.51,17.53,7.54,25.55,15.11,30,37,54.27,63.94,74.17a55.59,55.59,0,0,1,7.24,6.08c-12.69,2.22-20.67,10.24-27,20.4a79.83,79.83,0,0,0-6.61,13.64c-.66,1.69-1.19,3.32.28,4.85s3.22,1.29,5.06.69a117.88,117.88,0,0,1,24-5.52c7.61-.82,15.17-.9,22.51,1.9a4.19,4.19,0,0,1,3,3.71,59.37,59.37,0,0,1,0,20.34c-3.07,15.66-11.64,26.47-27.49,30.59-8.21,2.13-16.53,1.7-24.76.06-18.21-3.62-34.44-11.94-50.11-21.53-1.18-.73-.79-1.17-.18-2a43.36,43.36,0,0,0,7.53-15.21c3-11,2.41-22.12.2-33.19a110.16,110.16,0,0,0-5.46-18.4c-.38-1-.75-2-2-2.11s-1.81.77-2.36,1.68c-.46.75-1,1.46-1.47,2.16a47,47,0,0,1-12.11,11c-2,1.31-3.95,2.64-5.95,3.9C99.3,238.38,93.82,244.62,94.19,254.93Z"/><path class="cls-1" d="M124.81,304.22c1-.4,1.62.35,2.35.76,14.08,8,28.62,14.81,44.48,18.45,14,3.2,27.94,3.91,41.66-1.07,19.3-7,30.61-21.2,34.52-41,4.9-24.86-2-47.11-16.76-67.21-6.2-8.47-14.4-14.79-22.66-21.13a195.07,195.07,0,0,1-50.18-56.76c-3.22-5.51-1.53-8.47,4.88-9.13a72.45,72.45,0,0,1,25.19,2.14c19.6,4.93,37,14.37,53.32,26,21.46,15.36,39.82,33.76,54,56.11,8.16,12.83,14.43,26.49,17.1,41.58,4.71,26.55-3,49.07-23.57,66.36-13.44,11.3-29.49,18.27-46.66,22.22-35.85,8.24-68.29.08-98-20.83A170.33,170.33,0,0,1,124.81,304.22Z"/><path class="cls-1" d="M241,110c6.93,0,12.46,2,17.83,4.63a90.62,90.62,0,0,1,24.3,16.73c2.17,2.11,2,2.95-.8,4.39-3.56,1.81-7.46,2.12-11.33,2.09-12.16-.11-23.21-3.6-32.77-11.31a17.24,17.24,0,0,1-6.15-8.24c-1.17-3.71,0-6.19,3.66-7.46A14.72,14.72,0,0,1,241,110Z"/></g></g></svg>