<svg xmlns="http://www.w3.org/2000/svg" viewBox="0 0 421.2 425.17"><defs><style>.cls-1{fill:#fff;}</style></defs><g id="Слой_2" data-name="Слой 2"><g id="Слой_1-2" data-name="Слой 1"><path class="cls-1" d="M198.44,425c-7.58-.19-15.13-.73-22.67-1.46a301.92,301.92,0,0,1-41.93-7,245.35,245.35,0,0,1-54.48-19.8c-15.87-8.1-30.72-17.71-43.63-30.09-12.26-11.76-22.17-25.16-28.63-41A95.74,95.74,0,0,1,.49,299.4,88.59,88.59,0,0,1,0,290.05C0,280,.06,269.9,0,259.83-.1,241.71,4.83,225,14.08,209.52c9-15.12,21.09-27.49,35-38.12a196.46,196.46,0,0,1,40.28-23.48c.73-.32,1-.6.81-1.44-1.55-8.36-3-16.73-4.54-25.11q-2.48-13.74-5-27.48C79,84.76,77.33,75.64,75.76,66.5,72.26,46.2,78,28.85,92.87,14.67A50.82,50.82,0,0,1,122.75.53c22.91-2.55,40.95,6,54.09,24.87a52.52,52.52,0,0,1,8.85,24.11,60.84,60.84,0,0,1,.33,7.14q0,33.48,0,67c0,1.11.3,1.32,1.33,1.28,4.66-.16,9.31-.57,14-1a179.11,179.11,0,0,1,20.2-.21,74.93,74.93,0,0,1,10.45,1.07c.52.09.61-.08.58-.52,0-.24,0-.49,0-.73q0-33.85,0-67.7A53.87,53.87,0,0,1,241.94,25C250.75,12,262.83,3.66,278.28,1c20.7-3.61,38.18,2.91,52.17,18.49a56.12,56.12,0,0,1,13.79,30,60.27,60.27,0,0,1-.64,20.09c-1.66,8.73-3.18,17.49-4.76,26.24l-4.95,27.49q-2.13,11.79-4.28,23.56c-.14.73.34.8.77,1,5.95,2.63,11.8,5.49,17.49,8.63,16.12,8.9,30.9,19.59,43.52,33.08C403,201.91,412,215.83,417.05,232.09a87.25,87.25,0,0,1,4.12,25.84c0,10.15-.07,20.29,0,30.43a96.4,96.4,0,0,1-13.83,50.71,125.73,125.73,0,0,1-26.5,31.23c-12.88,11.15-27.34,19.87-42.5,27.48a244.29,244.29,0,0,1-51.47,18.54,296.44,296.44,0,0,1-32.5,6.05,318.11,318.11,0,0,1-32.91,2.6,56.58,56.58,0,0,0-6.89.2h-9.48A53.19,53.19,0,0,0,198.44,425ZM168.73,97q0-20.26,0-40.54a39,39,0,0,0-.77-8.56A37.82,37.82,0,0,0,154.3,25.74c-9.62-7.59-20.57-10.28-32.5-7.48-12.8,3-21.73,10.93-26.87,23A35.56,35.56,0,0,0,92.66,62c.62,3.33,1.27,6.66,1.87,10,1.87,10.33,3.7,20.67,5.57,31,1.5,8.33,3,16.66,4.54,25,1.82,10,3.61,20,5.46,30.06.19,1,0,1.49-1.06,1.89a211.24,211.24,0,0,0-31.38,14.95c-13.65,8-26.15,17.41-36.77,29.2a100,100,0,0,0-15.12,21.81,76,76,0,0,0-8.48,34.37q-.06,15.27-.05,30.53a74.33,74.33,0,0,0,2.89,20.54c4.28,14.9,12.42,27.52,23,38.68,12,12.66,26,22.48,41.35,30.58A235.93,235.93,0,0,0,139.24,401a288.9,288.9,0,0,0,42.67,7c6.43.57,12.87,1,19.32,1.16a316.35,316.35,0,0,0,41.29-1.59c8-.86,16-2,23.91-3.48A258.7,258.7,0,0,0,312,391.27c21.62-8.38,41.65-19.44,58.81-35.25A115,115,0,0,0,393,329a81.67,81.67,0,0,0,9.57-25.12A78.61,78.61,0,0,0,404,290.59c0-.33-.24-.93.38-.89,1,.07.92-.55.92-1.2q0-14.16,0-28.32v-.53c0-.43-.14-.69-.6-.63-.73.1-.74-.34-.77-.89a80.17,80.17,0,0,0-1.32-11.36,88.44,88.44,0,0,0-8.05-22.49c-6.16-12.45-14.94-22.85-25.28-32a167,167,0,0,0-33.77-22.76,223.73,223.73,0,0,0-24.79-11c-.58-.21-.88-.4-.73-1.18,1.18-6.26,2.28-12.53,3.41-18.8l4.56-25.31L321.57,93c1.52-8.4,3-16.81,4.56-25.2a54.8,54.8,0,0,0,.95-17.23,38.5,38.5,0,0,0-10.32-22.33c-9.64-10.12-21.56-14-35.29-11.59-12.31,2.15-21.36,9.1-27.3,20.06a37.55,37.55,0,0,0-4.4,18.2q0,42.48,0,85c0,.72.32,1.69-.17,2.11-.34.29-1.3-.16-2-.28a79,79,0,0,0-14.25-.84c-2.46,0-4.91-.11-7.36-.28-3.91-.27-7.82-.83-11.73-.92-9-.21-18-.33-27,1-2.28.33-4.6.38-6.9.57-3.46.29-6.89.78-10.36,1-1.13.05-1.3-.33-1.3-1.35Q168.76,118.92,168.73,97Z"/><path class="cls-1" d="M214.6,425.17a56.58,56.58,0,0,1,6.89-.2l.06.2Z"/><path class="cls-1" d="M198.44,425a53.19,53.19,0,0,1,6.68.2h-6.74Z"/><path class="cls-1" d="M261.74,251.1c.11-8.26,1.85-16.06,6.56-23a20.36,20.36,0,0,1,8.2-7.36C282.46,218,288,219,293,223c4.66,3.73,7.43,8.75,9.13,14.33,3.38,11.12,2.91,22.06-2,32.67a24.13,24.13,0,0,1-8.46,10.27c-6.32,4.18-13.7,3.54-19.35-1.58-5-4.51-7.67-10.28-9.26-16.65A42.85,42.85,0,0,1,261.74,251.1Z"/><path class="cls-1" d="M114.29,252.28c0-8.65,1.53-15.76,5.33-22.3a22.51,22.51,0,0,1,8.82-8.94,15.18,15.18,0,0,1,17.5,2.25c5,4.34,7.81,10,9.37,16.22,2.67,10.77,1.94,21.28-3.08,31.3a23.4,23.4,0,0,1-8.74,9.88,15.23,15.23,0,0,1-18.41-1.78c-5.28-4.69-8.07-10.75-9.66-17.46A39,39,0,0,1,114.29,252.28Z"/></g></g></svg>