<svg xmlns="http://www.w3.org/2000/svg" viewBox="0 0 442.11 406.33"><defs><style>.cls-1{fill:#fff;}</style></defs><g id="Слой_2" data-name="Слой 2"><g id="Слой_1-2" data-name="Слой 1"><path class="cls-1" d="M441.91,225.23a91.23,91.23,0,0,0-3.63-19.18A154.58,154.58,0,0,0,423.12,172c-10.9-18.69-24.33-35.44-39.24-51.05-6-6.24-12.18-12.23-18.58-18q-12-10.89-24.93-20.75c-8.58-6.59-17.57-12.6-26.45-18.76a434.15,434.15,0,0,0-62.14-36.29,332,332,0,0,0-39-15.6,239.57,239.57,0,0,0-43.2-10.06A163.88,163.88,0,0,0,149.3,0,112.65,112.65,0,0,0,132,1.22a73.86,73.86,0,0,0-24,7.54,47.19,47.19,0,0,0-17,14.9q-14,20.22-27.82,40.5-21,30.59-42,61.15c-2.69,3.93-5.46,7.81-8.06,11.79s-5.82,7.39-7.35,12c-.44,1.32-1.23,2.51-1.77,3.8A55.47,55.47,0,0,0,.14,178.2,88.09,88.09,0,0,0,3.6,197.27a148.07,148.07,0,0,0,14.17,32.34,251.06,251.06,0,0,0,22.32,32.3q7.21,9,15.06,17.42,8.77,9.46,18.15,18.33a50.07,50.07,0,0,1,4.09,4h0a14.75,14.75,0,0,0-2.71.57l.48.44Q87.77,313.84,101,324.2a463.06,463.06,0,0,0,75.45,48.55c22.94,11.66,46.67,21.26,71.69,27.51A204,204,0,0,0,281,405.83a130.43,130.43,0,0,0,24.44-.14A84,84,0,0,0,325,401.44c10.37-3.71,19.08-9.6,25.34-18.87q37-54.79,74.08-109.56c4.14-6.13,8.67-12,12.11-18.61a1.22,1.22,0,0,1,.44-1v0c0-.19,0-.37.2-.43v0c0-.18-.09-.39.2-.43v0a10,10,0,0,0,1.73-3.72A56.5,56.5,0,0,0,441.91,225.23ZM87.52,96.48a5.43,5.43,0,0,1,3-3.71,2.08,2.08,0,0,1,2.41,1.64,51.29,51.29,0,0,0,4,8.81,266.29,266.29,0,0,0,25,39.53,321.15,321.15,0,0,0,22.1,26.08,356.14,356.14,0,0,0,47.27,41.88q9.42,7,19.28,13.37a1.91,1.91,0,0,1,.91,1.28c.17.76.43,1.49.61,2.24a2,2,0,0,1-1.62,2.67,6.45,6.45,0,0,0-.85.27,4.14,4.14,0,0,1-4.2-.59c-9.05-6.19-17.92-12.63-26.47-19.5-4.34-3.49-8.62-7.06-12.79-10.75a357.51,357.51,0,0,1-41.53-43.18,301.32,301.32,0,0,1-20.66-28.79,234.63,234.63,0,0,1-16.1-30A2,2,0,0,1,87.52,96.48ZM76.65,68.27c-.09-.28-.17-.56-.23-.74a2.13,2.13,0,0,1,1-1.63c1-.7,2-1.43,3-2.24,1.23-1,2.83-.32,3.3,1.36a44.86,44.86,0,0,1,2,13.17,1.74,1.74,0,0,0,.28.93,2,2,0,0,1-1.39,3.19,3.38,3.38,0,0,0-1.13.39c-1.4.93-3.14.29-3.22-1.38C80,76.68,78.05,72.56,76.65,68.27Zm259.9,218.28c-.53.77-2.49,1.11-3.94.68l-2.84-.83c-3.91-1.16-7.82-2.34-11.74-3.48a30.75,30.75,0,0,0-3.91-1.14.23.23,0,0,1-.11,0c-1.53-.86-1.05-2.35-1.14-3.66a1.48,1.48,0,0,1,1.36-1.61,6.41,6.41,0,0,1,3.25.11c5.39,1.64,10.79,3.19,16.19,4.77a9.42,9.42,0,0,0,1.12.41A3.4,3.4,0,0,1,336.55,286.55Zm57.76,6.36a96.53,96.53,0,0,1-13,.81A224.85,224.85,0,0,1,358,292.05c-2.79-.33-5.57-.66-8.36-1a3.91,3.91,0,0,1-3.52-4,3.76,3.76,0,0,1,4.08-3.33c3.45.35,6.89.82,10.33,1.2,11,1.2,21.92,1.94,32.92.61a3.69,3.69,0,1,1,.86,7.31Zm33-58a34,34,0,0,1-16.77,26.05,56.5,56.5,0,0,1-20.78,7.31,108.54,108.54,0,0,1-28.24.51,168,168,0,0,1-17.58-2.67,3.37,3.37,0,0,0-.44,0c-4.3-1-8.62-2-12.88-3.12a285.4,285.4,0,0,1-36.53-12.7q-11.68-4.91-23-10.65a421.17,421.17,0,0,1-43.34-25.38,514.57,514.57,0,0,1-47.47-35.5q-14-11.91-26.94-25c-2.23-2.26-4.52-4.47-6.64-6.83-9.16-10.18-18-20.6-25.76-31.93A190.5,190.5,0,0,1,109.11,95.4a109.45,109.45,0,0,1-9.92-25.94A60.07,60.07,0,0,1,97.51,53a38.37,38.37,0,0,1,3.19-14.44,37.32,37.32,0,0,1,15.07-16.73c6.88-4.14,14.44-6.25,22.32-7.38a99.92,99.92,0,0,1,18.45-.81,160.52,160.52,0,0,1,22.9,2.78,240.72,240.72,0,0,1,33.83,9.16A325.1,325.1,0,0,1,245.78,39,404,404,0,0,1,287.2,61.7a469.41,469.41,0,0,1,46.1,32.92q12,9.67,23.27,20.15c5.38,5,10.66,10.11,15.75,15.41,13,13.54,25,27.91,35.18,43.75a176,176,0,0,1,11.26,20.29,112,112,0,0,1,6.8,19A59.91,59.91,0,0,1,427.3,234.89Z"/><path class="cls-1" d="M436.57,254.4a1.22,1.22,0,0,1,.44-1A1,1,0,0,1,436.57,254.4Z"/><path class="cls-1" d="M437.23,253c0-.18-.09-.39.2-.43C437.49,252.73,437.49,252.91,437.23,253Z"/><path class="cls-1" d="M437,253.41c0-.19,0-.37.2-.43C437.3,253.2,437.26,253.35,437,253.41Z"/><path class="cls-1" d="M316.07,204.61a90.76,90.76,0,0,1-23.41-3.9c-15-4.34-28.92-11-42.33-18.84a197.57,197.57,0,0,1-25.83-18.06,179.72,179.72,0,0,1-28.16-28.41c-6-7.73-11.23-15.91-14.28-25.32a35.34,35.34,0,0,1-1.85-10c-.24-9.58,4.81-16.69,14-19.75a42.48,42.48,0,0,1,15.61-1.85c14,.68,27,4.93,39.81,10.33a207.47,207.47,0,0,1,31.67,16.93,195.36,195.36,0,0,1,22.34,16.82c2.16,1.88,4.18,3.91,6.3,5.83a147.18,147.18,0,0,1,19.28,21.1,88,88,0,0,1,11.33,19.3,39.66,39.66,0,0,1,3.35,14.45c.09,9.23-4.69,16-13.39,19.17A41.28,41.28,0,0,1,316.07,204.61Z"/></g></g></svg>