<svg xmlns="http://www.w3.org/2000/svg" viewBox="0 0 388.68 447.7"><defs><style>.cls-1{fill:#fff;}.cls-2{fill:#e7257b;}</style></defs><g id="Слой_2" data-name="Слой 2"><g id="Слой_1-2" data-name="Слой 1"><path class="cls-1" d="M59.78,101.71c.85.47,1.16,1.37,1.65,2.11,11.68,17.71,23,35.65,34.55,53.46,6.77,10.47,13.55,20.94,20.72,31.15,1.72,2.46,3.45,4.92,6.1,6.54a15.18,15.18,0,0,0,11.4,2.29,41,41,0,0,0,8.58-2.64,15.18,15.18,0,0,0,5.12-3.54,6.42,6.42,0,0,0,1.1-7.76,17.35,17.35,0,0,0-2.14-3c-16.92-21.08-34-42-51.14-62.94Q68.08,83.5,40.4,49.7,23.9,29.54,7.33,9.43C5.93,7.73,4.58,6,2.94,4a2.51,2.51,0,0,1,2,1.2q5.67,6.09,11.29,12.24,13.62,14.88,27.21,29.8,27,29.69,54.06,59.41,18.33,20.15,36.61,40.33,13.47,14.9,26.87,29.85a6,6,0,0,0,.8.86c2,1.52,2.27,3.55,2.33,6,.25,10.84-5.26,18.11-14.06,23.42A43.35,43.35,0,0,1,135,212.22c-2.82.5-5.66.93-8.49,1.4-6.39,1.06-11,5.46-12.23,12.77a89.54,89.54,0,0,0-1.09,9.92,80.88,80.88,0,0,1-8.1,31c-2.38,4.94-4.79,9.87-6.75,15A36.69,36.69,0,0,0,95.76,292a27.38,27.38,0,0,0,6.82,21.36,67.2,67.2,0,0,0,12.82,10.85,75.66,75.66,0,0,1,11.33,9,24.31,24.31,0,0,1,3.31,4.12,18.05,18.05,0,0,1,2.9,8.82,46.66,46.66,0,0,1-.35,9.38,17.38,17.38,0,0,1-3.38,7.83,51.78,51.78,0,0,1-15.45,13.38,110.92,110.92,0,0,1-28.59,11.49c-3.15.83-6.35,1.47-9.52,2.19a10.13,10.13,0,0,1-1.55.21c-2,.15-2,.15-2.36-1.85a21.46,21.46,0,0,0-2.22-5.62A176.14,176.14,0,0,0,60,367.36a71.76,71.76,0,0,1-10.13-25.7,64.89,64.89,0,0,1-.47-17.55c.74-8.9,4.54-16.56,9.77-23.56,4.65-6.22,9.61-12.21,14.36-18.36A123,123,0,0,0,88.25,258.9a78.33,78.33,0,0,0,6.47-23.29c1-7.38,2-14.74,5-21.68a34.29,34.29,0,0,1,5.68-9.09c1.15-1.33,2.31-2.67,3.36-4.08a7,7,0,0,0,.79-7.88c-3.07-6.2-6.31-12.32-9.67-18.37q-19.2-34.57-38.45-69.14c-.65-1.16-1.61-2.23-1.57-3.69ZM79.07,332.88a8.86,8.86,0,0,0-3.59-7.19A8.27,8.27,0,0,0,67,324.44,3,3,0,0,0,65,327.05c-.11,1.32.74,1.94,1.79,2.5,1.92,1.05,2.2,2.07,1.23,4-.4.81-.92,1.58-1.25,2.42a3.94,3.94,0,0,0,1.71,5.22,5.86,5.86,0,0,0,7.06-.56A9.46,9.46,0,0,0,79.07,332.88Z"/><path class="cls-1" d="M250.72,197a1.36,1.36,0,0,1,1,.52c7.6,6.85,16.74,10.46,26.56,12.64,7.51,1.67,15.11,2.89,22.72,4,11,1.67,22.07,3.2,32.83,6.26a89.14,89.14,0,0,1,27.39,12.68q22.59,16,26.88,43.35a62.91,62.91,0,0,1,.39,13.3,91.32,91.32,0,0,1-1.34,12.44c-1.25,6.27-3.83,12-6.73,17.68-.27.54-.51,1.45-1.28,1.2s-.64-1.07-.65-1.7a32.3,32.3,0,0,0-2.16-11.09A41.68,41.68,0,0,0,362,289.84a111.43,111.43,0,0,0-19.57-11.45c-11.36-5.44-23.1-10-34.72-14.82-10.55-4.39-20.89-9.21-30.54-15.4a71.64,71.64,0,0,1-16.4-13.86,43.35,43.35,0,0,1-10.18-23.94,102.37,102.37,0,0,1-.24-12.13C250.37,197.8,250.28,197.31,250.72,197Z"/><path class="cls-1" d="M339,174c.58-.13.75.2.95.42,10.12,11.19,17.84,23.78,22.21,38.3A48,48,0,0,1,364,222.9c-.72.13-.79-.46-1-.77-1.42-1.95-2.74-4-4.24-5.88-5.74-7.22-13.31-11.36-22.31-13a146.14,146.14,0,0,0-18.08-2c-9.57-.57-19.15-1.09-28.66-2.4A107,107,0,0,1,263,191.65c-9.59-4-17.46-10.34-24.47-17.88a320.64,320.64,0,0,1-20.26-24.92c-6.31-8.33-12.79-16.52-20.24-23.89s-15.62-13.66-25.22-18a81.38,81.38,0,0,0-21.17-6.1,13.6,13.6,0,0,1-4.09-.94,28.49,28.49,0,0,1,6.3-.54c18.64.36,34.86,6.93,49,18.9a148.86,148.86,0,0,1,18.46,18.61,3,3,0,0,0,3.2,1.16,138.15,138.15,0,0,1,32.35-2.27c21.68,1,41.83,6.95,60.15,18.8a6.88,6.88,0,0,1,3.3,4.78,61.07,61.07,0,0,1,1,20,25.75,25.75,0,0,1-2.51,8c-.38.76-.79,1.51-1.14,2.28A6.8,6.8,0,0,0,327.8,198a16.87,16.87,0,0,0,4.41-4.92,44.89,44.89,0,0,0,5.48-13.55C338.15,177.68,338.61,175.8,339,174Z"/><path class="cls-1" d="M334.42,414.44a15.46,15.46,0,0,1,1.73-4.37,46.08,46.08,0,0,0,5-22.12,53.79,53.79,0,0,0-5.28-20.73,186.85,186.85,0,0,0-13-22.33c-5.16-7.94-10.71-15.61-15.79-23.61-4.54-7.15-8.32-14.63-10.35-22.91a49.68,49.68,0,0,1-.21-24.41,10.66,10.66,0,0,1,.83-2.4c.55-1.09.83-1.18,2-.65a8.67,8.67,0,0,1,1.21.63c8.17,5.19,16.76,9.6,25.21,14.28A189.51,189.51,0,0,1,349.1,300.5a69.1,69.1,0,0,1,16,16.56,58.23,58.23,0,0,1,8.63,22.29,66.55,66.55,0,0,1,.56,16.2A62.8,62.8,0,0,1,373,367c-5.21,20.77-16.59,36.81-36,46.61A4.38,4.38,0,0,1,334.42,414.44Z"/><path class="cls-1" d="M123.77,385.76a87.19,87.19,0,0,1,13.72-11.5A127.24,127.24,0,0,1,178,355.12a82,82,0,0,1,26.58-2.31A62.38,62.38,0,0,1,228,359c12.36,6,20.22,15.76,24.2,28.79a137.79,137.79,0,0,1,4,18.74,143.92,143.92,0,0,0,2.72,15,35.19,35.19,0,0,0,5.05,11,19.52,19.52,0,0,0,12.86,8.19c7.59,1.48,14.92.27,22.14-2.15a27.62,27.62,0,0,1,4.76-1.5c.31.52-.05.72-.27.88-5,3.72-10.25,7.09-16.36,8.58-13.78,3.37-25.22-.6-34.25-11.53a55.69,55.69,0,0,1-6.89-10.9c-3.38-6.85-6.15-14-9.64-20.77-2.7-5.26-5.76-10.25-10.22-14.23-4.85-4.32-10.23-7.66-16.71-8.94a25.53,25.53,0,0,0-16.43,1.75c-10,4.77-13.36,17.27-6.93,25.83a20.58,20.58,0,0,0,15.24,8.2c7.61.66,14.29-5.53,14.68-13.17a24.55,24.55,0,0,0-.09-3.32,9.06,9.06,0,0,0-2.11-5.18c-2.53-3-8.39-6.2-14.18-4.51a8.41,8.41,0,0,0-6.41,8.53,6.25,6.25,0,0,0,3,5.22,10.51,10.51,0,0,1,2.37,1.44,7.18,7.18,0,0,1-6.61-6.65,10.72,10.72,0,0,1,6.63-10.75c7.34-3.18,17.48.42,21.17,7.52a14.46,14.46,0,0,1,1.43,5.06c.76,6.27-.14,12.12-4.52,17A20.52,20.52,0,0,1,202,424.27c-8.47.5-15.7-2.49-21.95-8.13-3.78-3.41-7.2-7.2-10.86-10.73a82.66,82.66,0,0,0-11.86-9.91c-6-3.89-12.59-5.92-19.48-7.29-4-.79-8-1.42-12-2C125.25,386.11,124.62,385.94,123.77,385.76Z"/><path class="cls-1" d="M146.53,119.72c-.29-2.82.21-5.6.35-8.4,0-.84.4-1.19,1.24-1,1.21.26,2.44.46,3.63.79a50.46,50.46,0,0,1,13.64,5.76A27.23,27.23,0,0,1,175,127.45a66.74,66.74,0,0,1,5.45,15.88c1.21,5.13,2.23,10.32,3.53,15.44a40.55,40.55,0,0,0,3.41,8.93,99.31,99.31,0,0,0,6.66,11.07,9.46,9.46,0,0,1,1,1.86c.73,1.81.17,2.88-1.69,3.39a12.73,12.73,0,0,1-6.57-.26c-5.77-1.42-10.67-4.48-15.26-8.11-8.75-6.9-14.6-15.89-18.79-26.08a86.73,86.73,0,0,1-6.28-25.35C146.41,122.73,146.53,121.22,146.53,119.72Z"/><path class="cls-1" d="M181.53,340.58a13.15,13.15,0,0,1,3.31-2.43,87.86,87.86,0,0,1,28-11.12c7.67-1.58,15.37-3,23.08-4.27,7.14-1.22,14.22-2.67,20.83-5.85,7.89-3.79,14.45-9.08,18.86-16.78A36.82,36.82,0,0,0,280.5,283a55.07,55.07,0,0,0-3.1-20,8.94,8.94,0,0,1-.55-2.59c.62.73,1.27,1.45,1.88,2.2a42.64,42.64,0,0,1,8.55,18.05,10.15,10.15,0,0,1,.21,2.14q0,5.58,0,11.16a19,19,0,0,1-1,5.77c-4.06,12.52-12.29,21.35-24.13,26.84a67.85,67.85,0,0,1-22.06,5.66c-8.64.85-17.31,1.25-26,2-10.36.86-20.59,2.47-30.42,6a16.3,16.3,0,0,1-1.69.48A2.59,2.59,0,0,1,181.53,340.58Z"/><path class="cls-1" d="M171.64,246.42a23.16,23.16,0,0,1-6.22-.5c-3.34-1-5.62-3-6.34-6.5-1.8-8.67,1-15.65,8-21a13.52,13.52,0,0,1,7.78-2.83c8.54-.37,15.27,2.33,20.07,10.86a12.84,12.84,0,0,1,1.61,5c.38,3.73-1.3,6.56-4.09,8.82a28,28,0,0,1-11.67,5.25A37.27,37.27,0,0,1,171.64,246.42Zm6.07-28.31a11.73,11.73,0,0,0-6.46,2c-3.9,2.81-3.79,6.77.26,9.32,4.41,2.78,8.79,2.44,13.07-.25,3.65-2.29,3.75-6.26.26-8.83A12.09,12.09,0,0,0,177.71,218.11Z"/><path class="cls-1" d="M358.48,172.21c-.87-.11-1.3-.84-1.85-1.36a174.87,174.87,0,0,0-16.12-13.38,26.31,26.31,0,0,0-3.95-2.54c-1.43-.7-2.29-.45-3.09.92a4.69,4.69,0,0,0-.55,2.26c-.12,3.46-.19,6.92-.37,10.37a46,46,0,0,1-4.72,19.05c-.33.64-.7,1.25-1.06,1.87a.49.49,0,0,1-.58.31,4.1,4.1,0,0,1,.54-2.07,20.33,20.33,0,0,0,1.63-8c.1-5.22.13-10.45-.09-15.67a43.08,43.08,0,0,0-1.2-8.52,19.85,19.85,0,0,0-7.32-11,89.37,89.37,0,0,0-14.21-8.62c-3.24-1.69-6.55-3.23-9.88-4.73a13.75,13.75,0,0,1-2.36-1.32,6.54,6.54,0,0,1,3,.41A143.82,143.82,0,0,1,315,136.35c1.81.74,3.67,1.37,5.53,2,2.14.66,2.66.31,3-1.93a49.88,49.88,0,0,0,.49-5.46c.3-5.68.78-11.33,2.66-16.76a54.47,54.47,0,0,1,3.52-7.83,3.65,3.65,0,0,1-.32,2.34c-2.2,5.76-2.35,11.72-1.78,17.76.22,2.34.6,4.66.94,7a23,23,0,0,0,6.06,12.7c4.15,4.43,8.34,8.83,12.45,13.29a133.43,133.43,0,0,1,10.9,12.84Z"/><path class="cls-2" d="M.61.58A10.8,10.8,0,0,1,3,3.24l-.28.33C1.93,2.65.81,1.93.63.55Z"/><path class="cls-1" d="M59.82,101.68c-.28.1-.34-.07-.33-.28a.3.3,0,0,1,.09-.15.36.36,0,0,1,.2.46Z"/><path class="cls-2" d="M.25.14C.09.19,0,.14,0,0,0,0,.1,0,.12,0a.86.86,0,0,1,.1.16Z"/><path class="cls-2" d="M.22.17.61.58l0,0C.31.6.23.41.25.14Z"/><path class="cls-2" d="M3,3.24c.1.14.31.34.27.39-.2.33-.38.08-.55-.06Z"/><polygon class="cls-1" points="358.47 172.23 358.5 172.28 358.48 172.21 358.47 172.23"/></g></g></svg>