<svg width="1920" height="1080" viewBox="0 0 1920 1080" fill="none" xmlns="http://www.w3.org/2000/svg">
<g clip-path="url(#clip0_1012_36)">
<rect width="1920" height="1080" fill="black"/>
<path d="M485 975L366 625H445.5L529.5 884L615.5 625H693L574.5 975H485ZM726.75 975H649.25L777.25 625H867.25L994.25 975H913.75L886.75 898.5H753.75L726.75 975ZM819.75 705L773.75 838H866.25L819.75 705ZM1240.37 975H1026.37V625H1101.37V910.5H1240.37V975ZM1280.28 975V625L1515.28 625V689.5H1355.28V768H1485.28V829.5H1355.28V910.5H1520.78V975H1280.28ZM1541.04 689.5V625H1818.54V689.5H1717.04V975H1642.04V689.5H1541.04Z" fill="white"/>
<path d="M370.608 334V289.2H387.248C395.76 289.2 401.264 294.448 401.264 302.256C401.264 310.064 395.696 315.312 387.248 315.312H374.064V334H370.608ZM386.992 292.4H374.064V312.112H386.928C393.52 312.112 397.744 308.08 397.744 302.256C397.744 296.368 393.584 292.4 386.992 292.4ZM407.483 334V289.2H435.067V292.4H410.939V309.488H431.163V312.688H410.939V330.8H435.899V334H407.483ZM442.421 334V289.2H458.997C467.509 289.2 473.076 294.32 473.076 302.256C473.076 308.848 468.917 313.648 462.325 314.672L473.205 334H469.301L458.741 315.312H445.877V334H442.421ZM458.805 292.4H445.877V312.112H458.741C465.333 312.112 469.557 308.208 469.557 302.256C469.557 296.24 465.397 292.4 458.805 292.4ZM478.694 320.24H482.278C482.726 326.896 487.846 331.248 495.398 331.248C502.63 331.248 507.494 327.792 507.494 322.032C507.494 315.504 501.222 314.096 494.182 312.88C487.014 311.664 479.718 309.744 479.718 301.232C479.718 293.616 485.67 288.816 494.758 288.816C503.91 288.816 509.734 293.872 510.374 301.552H506.854C506.086 295.728 501.478 291.952 494.758 291.952C487.718 291.952 483.174 295.216 483.174 301.04C483.174 307.44 489.126 308.592 495.974 309.744C503.398 311.024 510.95 313.2 510.95 321.712C510.95 329.264 504.742 334.384 495.334 334.384C485.286 334.384 479.142 328.688 478.694 320.24ZM558.802 311.6C558.802 324.848 550.226 334.384 537.874 334.384C525.586 334.384 516.946 324.848 516.946 311.6C516.946 298.352 525.586 288.816 537.874 288.816C550.226 288.816 558.802 298.352 558.802 311.6ZM520.53 311.6C520.53 323.056 527.634 331.184 537.874 331.184C548.178 331.184 555.282 323.056 555.282 311.6C555.282 300.144 548.178 292.016 537.874 292.016C527.634 292.016 520.53 300.144 520.53 311.6ZM569.875 334H566.483V289.2H569.747L596.243 327.728V289.2H599.635V334H596.371L569.875 295.472V334ZM608.922 334H605.338L622.682 289.2H626.714L643.994 334H640.282L634.906 320.304H614.298L608.922 334ZM624.602 293.04L615.322 317.104H633.882L624.602 293.04ZM674.567 334H649.671V289.2H653.127V330.8H674.567V334ZM367.28 365.4V362.2H401.456V365.4H386.096V407H382.64V365.4H367.28ZM422.607 407.384C410.639 407.384 402.383 398.104 402.383 384.6C402.383 371.16 410.447 361.816 423.119 361.816C432.527 361.816 439.503 367 441.359 375.96H437.647C435.791 368.92 430.543 365.016 422.991 365.016C412.623 365.016 405.967 373.144 405.967 384.6C405.967 396.12 412.623 404.184 422.671 404.184C432.591 404.184 438.671 397.528 438.671 388.76V386.84H423.951V383.64H441.999V407H438.991L438.799 397.08C436.879 402.456 431.567 407.384 422.607 407.384ZM451.296 407V362.2H478.88V365.4H454.752V382.488H474.976V385.688H454.752V403.8H479.712V407H451.296ZM503.547 407H499.963L517.307 362.2H521.339L538.619 407H534.907L529.531 393.304H508.923L503.547 407ZM519.227 366.04L509.947 390.104H528.507L519.227 366.04ZM541.007 393.24H544.591C545.039 399.896 550.159 404.248 557.711 404.248C564.943 404.248 569.807 400.792 569.807 395.032C569.807 388.504 563.535 387.096 556.495 385.88C549.327 384.664 542.031 382.744 542.031 374.232C542.031 366.616 547.983 361.816 557.071 361.816C566.223 361.816 572.047 366.872 572.687 374.552H569.167C568.399 368.728 563.791 364.952 557.071 364.952C550.031 364.952 545.487 368.216 545.487 374.04C545.487 380.44 551.439 381.592 558.287 382.744C565.711 384.024 573.263 386.2 573.263 394.712C573.263 402.264 567.055 407.384 557.647 407.384C547.599 407.384 541.455 401.688 541.007 393.24ZM578.194 393.24H581.778C582.226 399.896 587.346 404.248 594.898 404.248C602.13 404.248 606.994 400.792 606.994 395.032C606.994 388.504 600.722 387.096 593.682 385.88C586.514 384.664 579.218 382.744 579.218 374.232C579.218 366.616 585.17 361.816 594.258 361.816C603.41 361.816 609.234 366.872 609.874 374.552H606.354C605.586 368.728 600.978 364.952 594.258 364.952C587.218 364.952 582.674 368.216 582.674 374.04C582.674 380.44 588.626 381.592 595.474 382.744C602.898 384.024 610.45 386.2 610.45 394.712C610.45 402.264 604.242 407.384 594.834 407.384C584.786 407.384 578.642 401.688 578.194 393.24ZM618.046 407V362.2H621.502V407H618.046ZM629.069 393.24L632.653 393.24C633.101 399.896 638.221 404.248 645.773 404.248C653.005 404.248 657.869 400.792 657.869 395.032C657.869 388.504 651.597 387.096 644.557 385.88C637.389 384.664 630.093 382.744 630.093 374.232C630.093 366.616 636.045 361.816 645.133 361.816C654.285 361.816 660.109 366.872 660.749 374.552H657.229C656.461 368.728 651.853 364.952 645.133 364.952C638.093 364.952 633.549 368.216 633.549 374.04C633.549 380.44 639.501 381.592 646.349 382.744C653.773 384.024 661.325 386.2 661.325 394.712C661.325 402.264 655.117 407.384 645.709 407.384C635.661 407.384 629.517 401.688 629.069 393.24ZM663.655 365.4V362.2H697.831V365.4H682.471V407H679.015V365.4H663.655ZM697.61 407H694.026L711.37 362.2H715.402L732.682 407H728.97L723.594 393.304H702.986L697.61 407ZM713.29 366.04L704.01 390.104H722.57L713.29 366.04ZM741.75 407H738.358V362.2H741.622L768.118 400.728V362.2H771.51V407H768.246L741.75 368.472V407ZM777.405 365.4V362.2H811.581V365.4H796.221V407H792.765V365.4H777.405ZM385.456 433.6C387.76 433.6 389.723 434.005 391.344 434.816C393.008 435.584 394.288 436.693 395.184 438.144C396.08 439.595 396.528 441.365 396.528 443.456C396.528 446.144 395.653 448.427 393.904 450.304C392.197 452.181 390.021 453.888 387.376 455.424L399.728 467.328C400.837 466.005 401.733 464.491 402.416 462.784C403.141 461.035 403.739 459.157 404.208 457.152H409.904C409.221 459.883 408.368 462.421 407.344 464.768C406.32 467.115 404.997 469.163 403.376 470.912L412.72 480H405.104L399.536 474.624C398.512 475.52 397.445 476.352 396.336 477.12C395.269 477.845 394.096 478.464 392.816 478.976C391.536 479.488 390.149 479.893 388.656 480.192C387.205 480.491 385.584 480.64 383.792 480.64C380.848 480.64 378.288 480.171 376.112 479.232C373.979 478.251 372.315 476.821 371.12 474.944C369.968 473.067 369.392 470.784 369.392 468.096C369.392 465.92 369.776 464.043 370.544 462.464C371.355 460.885 372.507 459.477 374 458.24C375.493 457.003 377.243 455.808 379.248 454.656C378.352 453.632 377.477 452.565 376.624 451.456C375.771 450.347 375.067 449.152 374.512 447.872C373.957 446.549 373.68 445.12 373.68 443.584C373.68 441.493 374.149 439.701 375.088 438.208C376.027 436.715 377.371 435.584 379.12 434.816C380.912 434.005 383.024 433.6 385.456 433.6ZM382.64 458.176C381.104 459.072 379.781 459.989 378.672 460.928C377.605 461.824 376.773 462.827 376.176 463.936C375.579 465.045 375.28 466.368 375.28 467.904C375.28 470.251 376.069 472.128 377.648 473.536C379.227 474.944 381.339 475.648 383.984 475.648C386.715 475.648 389.061 475.2 391.024 474.304C392.987 473.408 394.629 472.341 395.952 471.104L382.64 458.176ZM385.264 438.208C383.472 438.208 382 438.677 380.848 439.616C379.739 440.555 379.184 441.856 379.184 443.52C379.184 445.056 379.589 446.485 380.4 447.808C381.211 449.088 382.384 450.517 383.92 452.096C386.437 450.645 388.229 449.28 389.296 448C390.405 446.677 390.96 445.163 390.96 443.456C390.96 441.92 390.448 440.661 389.424 439.68C388.4 438.699 387.013 438.208 385.264 438.208ZM434.733 480L434.733 435.2H439.149L456.557 475.328L473.837 435.2H478.189L478.189 480H474.797L474.797 441.024L458.029 480H454.893L438.125 441.024L438.125 480H434.733ZM487.485 480H483.901L501.245 435.2H505.277L522.557 480H518.845L513.469 466.304H492.861L487.485 480ZM503.165 439.04L493.885 463.104H512.445L503.165 439.04ZM528.233 480V435.2H544.809C553.321 435.2 558.889 440.32 558.889 448.256C558.889 454.848 554.729 459.648 548.137 460.672L559.017 480H555.113L544.553 461.312H531.689V480H528.233ZM544.617 438.4H531.689V458.112H544.553C551.145 458.112 555.369 454.208 555.369 448.256C555.369 442.24 551.209 438.4 544.617 438.4ZM566.296 480V435.2H569.752V463.424L594.52 435.2H598.744L582.488 454.016L600.216 480H596.056L579.928 456.64L569.752 468.288V480H566.296ZM605.358 480V435.2L632.942 435.2V438.4L608.814 438.4V455.488H629.038V458.688H608.814V476.8L633.774 476.8V480L605.358 480ZM636.343 438.4V435.2H670.519V438.4H655.159V480H651.703V438.4H636.343ZM693.671 480V435.2H698.087L715.495 475.328L732.775 435.2H737.127V480H733.735V441.024L716.967 480H713.831L697.062 441.024V480H693.671ZM746.422 480H742.838L760.182 435.2H764.214L781.494 480H777.782L772.406 466.304H751.798L746.422 480ZM762.102 439.04L752.822 463.104H771.382L762.102 439.04ZM787.171 480V435.2H790.627V463.424L815.395 435.2H819.619L803.363 454.016L821.091 480H816.931L800.803 456.64L790.627 468.288V480H787.171ZM826.233 480V435.2H853.817V438.4H829.689V455.488H849.913V458.688H829.689V476.8H854.649V480H826.233ZM861.171 480V435.2H877.747C886.259 435.2 891.826 440.32 891.826 448.256C891.826 454.848 887.667 459.648 881.075 460.672L891.955 480H888.051L877.491 461.312H864.627V480H861.171ZM877.555 438.4H864.627V458.112H877.491C884.083 458.112 888.307 454.208 888.307 448.256C888.307 442.24 884.147 438.4 877.555 438.4Z" fill="white"/>
<rect x="366" y="510" width="1554" height="570" fill="#DB0C0C"/>
<rect x="366" y="258" width="591" height="231" fill="#DB0C0C"/>
<rect width="303" height="1080" fill="#FFC401"/>
<rect x="60" y="40" width="183" height="167" fill="#0051FF"/>
<rect width="271" height="42" transform="matrix(-1 0 0 1 303 727)" fill="#DB0C0C"/>
<rect width="271" height="42" transform="matrix(-1 0 0 1 303 779)" fill="#DB0C0C"/>
<rect width="271" height="42" transform="matrix(-1 0 0 1 303 831)" fill="#DB0C0C"/>
<rect x="32" y="904" width="36" height="33" fill="#0051FF"/>
<rect x="32" y="960" width="36" height="33" fill="#0051FF"/>
</g>
<defs>
<clipPath id="clip0_1012_36">
<rect width="1920" height="1080" fill="white"/>
</clipPath>
</defs>
</svg>
